<svg xmlns="http://www.w3.org/2000/svg" version="1.1" xmlns:xlink="http://www.w3.org/1999/xlink" xmlns:svgjs="http://svgjs.com/svgjs" width="512" height="512" x="0" y="0" viewBox="0 0 496.919 496.919" style="enable-background:new 0 0 512 512" xml:space="preserve" class=""><g><g xmlns="http://www.w3.org/2000/svg"><path d="m44.823 78.284 3.212 138.011c.153 6.578-.905 13.128-3.123 19.323l-11.193 31.275c-27.765 77.58-5.227 164.248 56.815 218.473 17.624 15.403 43.921 15.403 61.545 0 62.042-54.225 84.58-140.893 56.815-218.473l-11.194-31.275c-2.217-6.195-3.276-12.745-3.123-19.323l3.212-138.011c1-42.937-33.534-78.284-76.483-78.284-42.949 0-77.483 35.347-76.483 78.284z" fill="#f37c7c" data-original="#f37c7c"></path><path d="m149.019 485.367c-62.042-54.225-84.58-140.893-56.815-218.473l11.193-31.275c2.217-6.195 3.276-12.745 3.123-19.323l-3.212-138.011c-.758-32.572 18.964-60.77 47.264-72.489-9.006-3.73-18.898-5.796-29.266-5.796-42.949 0-77.483 35.347-76.483 78.284l3.212 138.011c.153 6.578-.906 13.128-3.123 19.323l-11.193 31.275c-27.766 77.58-5.227 164.248 56.815 218.473 17.121 14.964 42.427 15.387 60.015 1.276-.516-.413-1.028-.836-1.53-1.275z" fill="#ee6161" data-original="#ee6161"></path><path d="m85.925 284.925c-3.772-1.502-6.28-5.122-6.344-9.181l-3.109-198.197c-.313-13.428 5.231-26.037 15.511-34.984 7.124-6.2 16.116-9.988 25.529-10.752 13.587-1.103 26.485 3.744 35.872 13.352 8.509 8.71 13.039 20.21 12.756 32.383l-3.109 198.197c-.064 4.059-2.572 7.68-6.344 9.181-23.587 9.391-47.175 9.391-70.762.001z" fill="#fdf6ec" data-original="#fdf6ec"></path><path d="m85.925 284.925c.232.093.465.169.697.26 1.558-6.139 3.417-12.243 5.582-18.292l11.193-31.275c2.217-6.195 3.276-12.745 3.123-19.323l-3.212-138.011c-.404-17.344 5.005-33.456 14.419-46.493-.071.005-.144.015-.215.02-9.413.764-18.405 4.552-25.529 10.752-10.28 8.948-15.823 21.557-15.511 34.984l3.11 198.196c.063 4.06 2.571 7.68 6.343 9.182z" fill="#fef1da" data-original="#fef1da"></path><g><path d="m79.459 429.635c-2.488 0-4.923-1.238-6.35-3.498-2.21-3.503-1.163-8.135 2.34-10.345l2.395-1.511c4.194-2.646 6.698-7.187 6.698-12.146v-63.693c0-4.142 3.357-7.5 7.5-7.5s7.5 3.358 7.5 7.5v63.693c0 10.139-5.119 19.421-13.693 24.831l-2.394 1.511c-1.242.784-2.628 1.158-3.996 1.158z" fill="#fccd7f" data-original="#fccd7f"></path></g><path d="m120.282 337.375s-28.324 20.09-39.42 20.09-20.09-8.994-20.09-20.09c0-11.095 8.994-20.09 20.09-20.09s39.42 20.09 39.42 20.09z" fill="#fee45a" data-original="#fee45a"></path><g><path d="m146.031 399.842c-4.143 0-7.5-3.358-7.5-7.5v-57.345c0-4.142 3.357-7.5 7.5-7.5s7.5 3.358 7.5 7.5v57.345c0 4.142-3.357 7.5-7.5 7.5z" fill="#fccd7f" data-original="#fccd7f"></path></g><path d="m120.282 337.375s28.324 20.09 39.42 20.09 20.09-8.994 20.09-20.09c0-11.095-8.994-20.09-20.09-20.09s-39.42 20.09-39.42 20.09z" fill="#fee45a" data-original="#fee45a"></path><path d="m236.366 102.118 36.541 133.125c1.742 6.345 2.301 12.956 1.65 19.504l-3.285 33.055c-8.15 81.995 34.708 160.624 108.036 198.209 20.83 10.676 46.344 4.307 59.713-14.906 47.062-67.637 47.939-157.183 2.211-225.729l-18.435-27.633c-3.651-5.474-6.265-11.572-7.709-17.991l-30.309-134.68c-9.43-41.901-51.496-67.831-93.166-57.43-41.671 10.401-66.616 53.059-55.247 94.476z" fill="#f37c7c" data-original="#f37c7c"></path><path d="m433.334 468.981c-73.328-37.585-116.185-116.214-108.036-198.209l3.285-33.055c.651-6.547.092-13.159-1.65-19.504l-36.541-133.125c-8.281-30.168 2.735-60.997 25.418-79.537-7.913-.585-16.07.061-24.198 2.09-41.67 10.402-66.615 53.06-55.247 94.477l36.541 133.125c1.742 6.345 2.301 12.956 1.65 19.504l-3.286 33.055c-8.149 81.995 34.708 160.624 108.036 198.208 20.735 10.628 46.12 4.353 59.538-14.656-1.858-.67-3.709-1.45-5.51-2.373z" fill="#ee6161" data-original="#ee6161"></path><path d="m326.291 292.652c-4.023-.543-7.333-3.448-8.378-7.371l-51.018-191.542c-3.555-12.952-1.23-26.528 6.576-37.699 5.41-7.741 13.217-13.593 22.165-16.615 12.916-4.361 26.603-2.782 38.038 4.267 10.365 6.39 17.546 16.451 20.219 28.33l44.985 193.049c.921 3.954-.635 8.074-3.931 10.444-20.611 14.823-43.496 20.536-68.656 17.137z" fill="#fdf6ec" data-original="#fdf6ec"></path><path d="m325.298 270.772 3.285-33.055c.651-6.547.092-13.159-1.65-19.504l-36.541-133.125c-4.128-15.038-3.46-30.25 1.053-44.009-7.185 3.279-13.429 8.456-17.974 14.96-7.807 11.171-10.132 24.747-6.576 37.699l51.018 191.542c.868 3.258 3.309 5.791 6.412 6.875-.053-7.085.261-14.221.973-21.383z" fill="#fef1da" data-original="#fef1da"></path><g><path d="m353.241 434.845c-1.863 0-3.729-.69-5.183-2.08-2.993-2.863-3.1-7.61-.236-10.604l1.957-2.046c3.429-3.584 4.758-8.596 3.558-13.407l-11.01-44.104-6.41-20.196c-1.253-3.948.932-8.165 4.88-9.417 3.942-1.254 8.163.931 9.417 4.879l6.481 20.42c.048.149.09.3.128.453l11.066 44.333c2.456 9.836-.263 20.083-7.271 27.408l-1.956 2.045c-1.473 1.54-3.445 2.316-5.421 2.316z" fill="#fccd7f" data-original="#fccd7f"></path></g><path d="m372.328 335.22s-22.688 26.435-33.487 29.131-21.739-3.873-24.434-14.672 3.873-21.739 14.672-24.434c10.8-2.697 43.249 9.975 43.249 9.975z" fill="#fee45a" data-original="#fee45a"></path><g><path d="m410.618 389.816c-3.361 0-6.42-2.276-7.271-5.686l-9.569-38.335-3.854-16.068c-.966-4.028 1.517-8.076 5.544-9.042 4.034-.965 8.076 1.517 9.042 5.544l3.837 16 9.553 38.268c1.004 4.019-1.441 8.09-5.46 9.093-.609.153-1.22.226-1.822.226z" fill="#fccd7f" data-original="#fccd7f"></path></g><path d="m372.328 335.22s32.45 12.672 43.249 9.976 17.368-13.635 14.672-24.434-13.635-17.368-24.434-14.672c-10.799 2.695-33.487 29.13-33.487 29.13z" fill="#fee45a" data-original="#fee45a"></path></g></g></svg>