<?xml version="1.0" encoding="iso-8859-1"?>
<!-- Generator: Adobe Illustrator 19.1.0, SVG Export Plug-In . SVG Version: 6.00 Build 0)  -->
<svg version="1.1" id="Capa_1" xmlns="http://www.w3.org/2000/svg" xmlns:xlink="http://www.w3.org/1999/xlink" x="0px" y="0px"
	 viewBox="0 0 456.279 456.279" style="enable-background:new 0 0 456.279 456.279;" xml:space="preserve">
<g>
	<g>
		<path style="fill:#45CE83;" d="M70.739,106.327l0.064-0.074c21.436-24.951,61.062-21.385,77.699,6.993l0,0
			c11.628,19.834,35.703,28.617,57.372,20.929l6.91-2.452c0,0-5.215,23.126-17.253,26.125"/>
		<path style="fill:#45CE83;" d="M385.54,103.488l-0.064-0.074c-21.436-24.951-61.062-21.385-77.699,6.993l0,0
			c-11.628,19.834-35.703,28.617-57.372,20.929l-6.91-2.452c0,0,5.215,23.126,17.253,26.125"/>
	</g>
	<path style="fill:#46B9CC;" d="M84.836,368.471L8.97,337.234c-6.796-2.798-10.419-10.244-8.425-17.319l61.022-216.521
		l150.569,61.995L103.013,362.105C99.447,368.532,91.632,371.269,84.836,368.471z"/>
	<path style="fill:#FFFFFF;" d="M87.459,351.844c-0.82,0-1.652-0.202-2.421-0.629c-2.414-1.34-3.286-4.383-1.946-6.798l6.885-12.41
		c1.34-2.414,4.382-3.287,6.798-1.947c2.414,1.34,3.286,4.383,1.946,6.798l-6.885,12.41
		C90.923,350.914,89.218,351.844,87.459,351.844z"/>
	<path style="fill:#FFFFFF;" d="M104.522,321.086c-0.82,0-1.652-0.202-2.421-0.629c-2.414-1.34-3.286-4.383-1.946-6.798
		l51.215-92.326c1.339-2.414,4.381-3.287,6.798-1.947c2.414,1.34,3.286,4.383,1.946,6.798l-51.215,92.326
		C107.986,320.157,106.281,321.086,104.522,321.086z"/>
	<path style="fill:#F4E84A;" d="M214.63,173.591L54.023,107.462c-3.388-1.395-5.003-5.272-3.609-8.66l0,0
		c1.395-3.388,5.272-5.003,8.66-3.609l160.607,66.128c3.388,1.395,5.003,5.272,3.609,8.66v0
		C221.895,173.37,218.018,174.986,214.63,173.591z"/>
	<path style="fill:#F48438;" d="M371.444,368.471l75.866-31.237c6.796-2.798,10.419-10.244,8.425-17.319l-61.022-216.521
		L244.143,165.39l109.124,196.715C356.832,368.532,364.647,371.269,371.444,368.471z"/>
	<path style="fill:#FFFFFF;" d="M433.944,325.026c-2.183,0-4.188-1.44-4.81-3.645l-6.174-21.908
		c-0.749-2.658,0.799-5.42,3.456-6.169c2.663-0.749,5.42,0.798,6.169,3.456l6.174,21.908c0.749,2.658-0.799,5.42-3.456,6.169
		C434.849,324.965,434.393,325.026,433.944,325.026z"/>
	<path style="fill:#FFFFFF;" d="M421.209,279.84c-2.183,0-4.188-1.44-4.81-3.645l-29.916-106.151
		c-0.749-2.658,0.798-5.42,3.456-6.169c2.657-0.748,5.42,0.798,6.169,3.456l29.916,106.151c0.749,2.658-0.798,5.42-3.456,6.169
		C422.116,279.78,421.659,279.84,421.209,279.84z"/>
	<path style="fill:#FFFFFF;" d="M385.255,152.264c-2.183,0-4.188-1.44-4.81-3.645l-4.36-15.47c-0.749-2.658,0.798-5.42,3.456-6.169
		c2.656-0.747,5.42,0.798,6.169,3.456l4.36,15.47c0.749,2.658-0.798,5.42-3.456,6.169
		C386.161,152.203,385.704,152.264,385.255,152.264z"/>
	<path style="fill:#F4E84A;" d="M241.65,173.591l160.607-66.128c3.388-1.395,5.003-5.272,3.609-8.66v0
		c-1.395-3.388-5.272-5.003-8.66-3.609l-160.607,66.128c-3.388,1.395-5.003,5.272-3.609,8.66v0
		C234.385,173.37,238.262,174.986,241.65,173.591z"/>
</g>
<g>
</g>
<g>
</g>
<g>
</g>
<g>
</g>
<g>
</g>
<g>
</g>
<g>
</g>
<g>
</g>
<g>
</g>
<g>
</g>
<g>
</g>
<g>
</g>
<g>
</g>
<g>
</g>
<g>
</g>
</svg>
