<?xml version="1.0" standalone="no"?>
<!DOCTYPE svg PUBLIC "-//W3C//DTD SVG 20010904//EN"
 "http://www.w3.org/TR/2001/REC-SVG-20010904/DTD/svg10.dtd">
<svg version="1.0" xmlns="http://www.w3.org/2000/svg"
 width="24.000000pt" height="24.000000pt" viewBox="0 0 24.000000 24.000000"
 preserveAspectRatio="xMidYMid meet">

<g transform="translate(0.000000,24.000000) scale(0.100000,-0.100000)"
fill="#000000" stroke="none">
<path d="M55 179 c-54 -54 -58 -61 -43 -73 10 -7 18 -30 20 -57 3 -41 5 -44
35 -47 30 -3 32 -1 35 35 4 50 31 52 38 3 4 -31 8 -35 35 -35 28 0 30 3 33 40
2 22 10 48 19 57 11 12 12 21 4 35 -11 23 -97 103 -109 103 -4 0 -34 -27 -67
-61z m123 -2 c40 -41 53 -67 33 -67 -6 0 -11 -21 -13 -47 -2 -36 -7 -49 -20
-51 -13 -3 -18 3 -18 21 0 42 -10 57 -40 57 -30 0 -40 -15 -40 -57 0 -18 -5
-24 -17 -21 -13 2 -19 15 -21 48 -2 25 -9 48 -15 52 -13 8 78 108 98 108 6 0
30 -19 53 -43z"/>
</g>
</svg>
