<?xml version="1.0" encoding="iso-8859-1"?>
<!-- Generator: Adobe Illustrator 19.0.0, SVG Export Plug-In . SVG Version: 6.00 Build 0)  -->
<svg version="1.1" id="Layer_1" xmlns="http://www.w3.org/2000/svg" xmlns:xlink="http://www.w3.org/1999/xlink" x="0px" y="0px"
	 viewBox="0 0 512 512" style="enable-background:new 0 0 512 512;" xml:space="preserve">
<g>
	<g>
		<path d="M477.939,168.11c-5.862-44.354-26.959-85.174-59.998-115.727C382.527,19.635,336.426,1.589,288.113,1.567
			c0,0-70.84-1.567-72.14-1.567c-36.779,0-72.52,10.434-103.359,30.176c-29.003,18.567-52.412,44.494-67.93,75.109
			c-7.414-0.796-14.938-1.216-22.56-1.216H0.001v31.684h7.837c4.507,0,8.173,3.667,8.173,8.174v88.058
			c0,65.35,25.8,126.441,72.648,172.022c29.729,28.925,65.5,49.199,104.4,59.693v0.295c0.482,0,0.955,0.029,1.422,0.072
			c1.519,0.399,3.041,0.791,4.568,1.161c5.445,2.387,9.087,8.018,9.087,14.92V512h95.726v-39.858c0-2.109,0.809-4.027,2.125-5.478
			c46.343-10.001,88.796-33.905,122.466-69.545c43.551-46.101,67.536-106.462,67.536-169.964v-16.367
			c0-4.507,3.667-8.173,8.173-8.173h7.837V168.11H477.939z M407.301,63.891c29.83,27.585,49.051,64.286,54.806,104.219h-16.053
			c-13.428,0-26.516,1.475-39.123,4.251c-1.245-12.295-3.655-24.34-7.17-36.002h33.35v-15.673h-38.823
			c-1.124-2.815-2.317-5.602-3.574-8.359h17.319V96.653h-25.358c-1.621-2.828-3.321-5.612-5.089-8.359H384V72.62h-17.659
			c-5.335-6.702-11.138-13.095-17.408-19.119c-15.708-15.087-33.577-27.211-52.879-36.077
			C337.498,19.298,376.738,35.629,407.301,63.891z M121.066,43.376c28.31-18.123,61.13-27.702,94.908-27.702
			c45.753,0,89.115,17.449,122.101,49.132c22.835,21.935,39.056,49.098,47.496,78.868h-32.916v15.673h36.598
			c1.051,5.632,1.828,11.338,2.329,17.1c-16.002,5.034-31.052,12.229-44.818,21.234l-73.19-113.849l-58.845,53.942v-49.48h-15.674
			v63.739h0.118l-15.792,14.475v-21.789h-15.673v18.275c-3.048-2.943-6.184-5.796-9.404-8.554v-34.799h-15.673v22.609
			c-23.977-16.897-51.639-28.892-81.522-34.534C75.326,81.621,95.902,59.484,121.066,43.376z M264.713,335.935
			c-0.356,4.639-0.539,9.327-0.539,14.056v26.089c0,12.855-10.081,23.399-22.754,24.142c-6.274-12.333-9.604-26.048-9.604-40.153
			v-0.101h16.347v-15.673h-16.348V313.76c0-16.074-1.823-31.728-5.264-46.774l45.706-26.117l21.034,10.517
			c-13.28,20.503-22.539,43.836-26.674,68.876h-18.453v15.673H264.713z M271.764,223.098l-49.432,28.248
			c-7.669-24.548-19.737-47.172-35.278-66.943l73.488-67.364L248.27,190.67l15.461,2.577l12.67-76.028l57.602,89.601
			c-11.753,9.218-22.342,19.853-31.519,31.64L271.764,223.098z M203.66,450.196c-1.955-0.721-4.009-1.242-6.138-1.551
			c-36.495-9.78-70.059-28.751-97.934-55.873c-43.79-42.605-67.905-99.707-67.905-160.789v-88.058
			c0-10.405-6.699-19.275-16.01-22.525v-1.66h6.451c106.982,0,194.018,87.036,194.018,194.019v46.308
			c0,26.256,9.806,51.364,27.611,70.698c6.073,6.594,12.883,12.31,20.252,17.064v0.126c0.065,0,0.128-0.005,0.194-0.005
			c0.181,0.116,0.363,0.228,0.544,0.342h-12.322c-33.432,0-60.63-27.199-60.63-60.631v-11.546c0-12.425-4.757-23.759-12.544-32.28
			l14.25-14.25l-11.083-11.082l-15.578,15.578c-6.819-3.737-14.638-5.866-22.947-5.866c-13.314,0-24.146-10.831-24.146-24.146
			v-4.797l33.728-33.729l-11.083-11.082l-22.712,22.712c-0.678-16.491-7.411-31.899-19.151-43.639l-19.1-19.1l-11.083,11.082
			l15.328,15.333h-21.41v15.673h34.004c3.79,7.124,5.802,15.113,5.802,23.412v24.136c0,5.764,1.241,11.241,3.454,16.192H95.609
			v15.673h24.033v-0.31c6.721,5.176,15.128,8.265,24.247,8.265c12.315,0,23.034,6.945,28.458,17.123h-37.031v15.673h40.802v10.978
			c0,26.932,14.037,50.632,35.167,64.215C208.729,451.367,206.19,450.797,203.66,450.196z M288.191,472.142v24.184h-64.379v-16.179
			c0-3.707-0.59-7.243-1.669-10.526c11.102,1.554,22.385,2.354,33.792,2.354c2.263,0,4.534-0.031,6.805-0.093
			c8.61-0.236,17.141-0.953,25.569-2.105C288.231,470.554,288.191,471.344,288.191,472.142z M496.327,188.263
			c-9.311,3.249-16.01,12.12-16.01,22.525v16.367c0,59.483-22.464,116.022-63.256,159.201
			c-28.543,30.215-63.826,51.408-102.436,62.059l-2.017-0.1c-7.916-0.66-15.623-2.399-22.955-5.104
			c26.823-10.283,45.962-36.186,46.215-66.524h31.414v-15.673h-31.398v-0.944c0-8.921,7.258-16.179,16.179-16.179
			c17.564,0,31.852-14.289,31.852-31.853v-8.494h24.118v-15.673h-23.067c3.621-13.813,16.207-24.033,31.14-24.033v-15.673
			c-9.069,0-17.555,2.535-24.791,6.934v-15.293h-15.673v30.705c-4.678,7.392-7.399,16.141-7.399,25.516v16.01
			c0,8.921-7.258,16.179-16.178,16.179c-0.153,0-0.303,0.009-0.456,0.011v-31.998h-15.673v36.389
			c-9.4,5.544-15.725,15.771-15.725,27.452v16.011c0,29.394-22.685,53.573-51.464,55.991c-4.83-3.482-9.351-7.455-13.463-11.92
			c-1.673-1.816-3.262-3.692-4.767-5.623c16.887-4.628,29.33-20.111,29.33-38.447v-26.089c0-91.646,74.56-166.206,166.206-166.206
			h50.275V188.263z"/>
	</g>
</g>
<g>
	<g>
		<path d="M134.151,73.433l8.955,12.898c21.443-14.802,46.544-22.626,72.666-22.626V48.032
			C186.515,48.032,158.223,56.815,134.151,73.433z"/>
	</g>
</g>
<g>
	<g>
		<path d="M123.226,81.897c-6.101,5.146-11.817,10.841-16.987,16.927l11.945,10.148c4.61-5.427,9.707-10.505,15.148-15.095
			L123.226,81.897z"/>
	</g>
</g>
<g>
</g>
<g>
</g>
<g>
</g>
<g>
</g>
<g>
</g>
<g>
</g>
<g>
</g>
<g>
</g>
<g>
</g>
<g>
</g>
<g>
</g>
<g>
</g>
<g>
</g>
<g>
</g>
<g>
</g>
</svg>
